<?xml version="1.0" standalone="no"?>
<!DOCTYPE svg PUBLIC "-//W3C//DTD SVG 20010904//EN"
 "http://www.w3.org/TR/2001/REC-SVG-20010904/DTD/svg10.dtd">
<svg version="1.0" xmlns="http://www.w3.org/2000/svg"
 width="3000.000000pt" height="1000.000000pt" viewBox="0 0 3000.000000 1000.000000"
 preserveAspectRatio="xMidYMid meet">

<g transform="translate(0.000000,1000.000000) scale(0.100000,-0.100000)"
fill="#000000" stroke="none">
<path d="M0 5000 l0 -5000 15000 0 15000 0 0 5000 0 5000 -15000 0 -15000 0 0
-5000z m14392 1376 c416 -80 950 -477 1135 -844 22 -45 46 -106 53 -135 7 -28
23 -87 36 -130 26 -84 31 -176 14 -239 -23 -82 -112 -161 -229 -205 -25 -9
-48 -18 -50 -19 -2 -2 45 -56 105 -121 119 -128 181 -197 232 -257 18 -21 35
-36 38 -34 15 15 71 605 90 946 l7 122 -54 0 c-59 0 -123 25 -153 59 -45 50
-27 199 26 220 13 5 104 18 203 30 99 12 234 33 300 46 195 41 179 40 193 11
30 -67 -2 -141 -86 -200 l-41 -28 23 -32 c28 -36 49 -95 67 -186 16 -78 17
-553 2 -675 -6 -44 -9 -81 -9 -82 1 -2 28 2 59 7 87 14 126 52 173 170 63 156
96 366 124 800 22 339 37 433 77 480 33 40 93 58 138 41 27 -9 43 -9 74 0 54
16 103 5 140 -33 33 -34 37 -47 46 -163 14 -164 88 -381 181 -531 38 -62 73
-105 75 -93 0 2 4 92 9 199 14 332 56 433 179 432 20 0 59 0 86 0 28 0 68 1
91 1 48 0 89 -25 110 -65 8 -15 28 -135 45 -266 100 -781 229 -1288 374 -1474
25 -32 56 -57 94 -75 117 -55 151 -96 151 -182 0 -58 -31 -103 -83 -120 -48
-16 -283 -6 -337 13 -175 64 -302 237 -384 522 -32 113 -85 399 -103 559 l-8
70 -32 -44 c-41 -56 -79 -81 -121 -81 l-34 0 8 -228 c6 -206 5 -229 -10 -241
-36 -30 -41 -2 -44 249 -3 240 -3 240 -24 229 -12 -6 -42 -9 -68 -7 -64 6
-127 52 -197 143 -32 41 -59 72 -61 71 -2 -2 -12 -47 -23 -99 -58 -288 -155
-455 -307 -529 -59 -29 -77 -33 -157 -34 -202 -3 -190 -2 -171 -23 61 -67 58
-240 -5 -307 -22 -23 -34 -27 -129 -39 l-45 -5 3 -129 c3 -110 1 -131 -14
-145 -28 -29 -39 -3 -42 108 l-4 104 -42 -43 c-47 -46 -91 -61 -142 -46 -51
15 -71 29 -95 68 -12 21 -24 39 -25 41 -4 6 -174 -28 -328 -65 l-148 -35 -21
21 c-28 28 -36 134 -14 177 15 29 14 32 -15 74 -53 79 -97 180 -159 373 -38
116 -73 206 -93 235 l-31 47 -146 3 -146 3 -7 -138 c-12 -238 -47 -376 -112
-432 -60 -53 -158 -30 -209 48 -25 37 -29 60 -55 293 -35 308 -54 422 -125
738 -69 306 -71 325 -48 369 56 107 182 105 290 -6 57 -58 136 -204 174 -320
l22 -69 218 -34 c244 -37 321 -37 408 1 50 21 91 62 91 91 0 22 -95 141 -163
204 -135 127 -331 257 -500 331 -53 24 -102 43 -107 43 -6 0 -10 -62 -10 -164
0 -135 -3 -166 -15 -176 -33 -27 -40 4 -45 188 l-5 177 -50 11 c-27 7 -86 13
-131 13 -147 2 -227 -63 -254 -205 -16 -86 -9 -148 41 -351 46 -185 48 -248
10 -302 -24 -33 -77 -61 -116 -61 -39 0 -90 27 -124 65 l-29 33 -81 -33 c-45
-18 -84 -35 -86 -37 -3 -3 24 -36 59 -75 81 -90 118 -145 161 -236 47 -98 75
-212 81 -332 11 -192 -39 -328 -166 -456 -107 -108 -228 -174 -406 -220 -79
-21 -111 -24 -279 -23 -173 0 -199 3 -288 27 -192 52 -386 168 -500 299 -28
34 -78 91 -111 127 -197 221 -286 475 -286 816 0 370 120 665 371 915 159 158
368 290 574 363 160 56 478 107 566 91 79 -15 144 -68 156 -125 3 -18 15 -32
34 -40 16 -6 40 -24 53 -40 l24 -29 32 57 c61 108 160 185 283 218 68 18 236
19 329 1z"/>
<path d="M14085 6297 c-74 -25 -122 -56 -173 -111 -48 -54 -71 -103 -57 -126
4 -7 38 22 83 68 63 65 88 84 137 102 67 25 167 31 296 16 76 -9 104 -1 76 22
-41 34 -289 53 -362 29z"/>
<path d="M13265 6263 c-156 -19 -371 -86 -519 -160 -183 -92 -356 -224 -356
-271 0 -39 42 -26 131 40 259 192 511 286 872 324 62 6 76 19 57 53 -9 19 -19
21 -83 20 -40 -1 -85 -4 -102 -6z"/>
<path d="M13600 6075 c-27 -29 -39 -32 -243 -75 -377 -79 -596 -170 -778 -323
-227 -191 -350 -489 -336 -815 2 -65 11 -135 19 -157 15 -39 15 -38 21 85 16
324 111 556 308 751 204 203 497 328 964 414 50 9 98 24 108 32 23 21 22 75
-1 96 -25 23 -34 21 -62 -8z"/>
<path d="M14233 6090 c-105 -21 -175 -97 -190 -207 l-6 -48 34 45 c86 111 225
152 397 116 l62 -13 0 37 c0 34 -3 38 -37 48 -49 14 -161 32 -193 31 -14 -1
-44 -5 -67 -9z"/>
<path d="M16967 5993 c18 -287 136 -586 280 -713 61 -54 85 -52 38 2 -44 52
-144 254 -180 363 -31 97 -55 228 -55 306 0 66 -21 99 -63 99 -22 0 -23 -3
-20 -57z"/>
<path d="M14578 6006 c4 -32 8 -36 65 -56 168 -61 366 -179 526 -314 93 -77
94 -78 51 -27 -100 119 -327 285 -505 371 -140 68 -142 68 -137 26z"/>
<path d="M13655 5899 c-16 -4 -97 -22 -178 -39 -384 -81 -602 -172 -785 -330
-214 -185 -332 -456 -332 -767 0 -106 12 -172 47 -260 23 -58 31 -67 99 -112
138 -93 259 -125 469 -126 130 0 160 3 225 23 125 39 214 101 252 176 19 37
20 52 15 171 -6 135 -31 253 -62 302 l-17 25 -106 -8 c-59 -5 -154 -9 -211 -9
l-103 0 6 -85 c17 -241 18 -317 7 -338 -14 -26 -36 -29 -45 -6 -3 9 -6 111 -6
228 l0 212 -54 17 c-74 24 -106 62 -106 127 0 37 6 55 25 79 33 38 67 48 195
56 247 14 741 72 757 89 7 6 -13 92 -41 176 -18 55 -21 88 -21 210 0 80 4 157
8 173 8 29 7 29 -38 16z"/>
<path d="M17714 5845 c3 -9 17 -107 31 -218 14 -111 30 -218 35 -237 5 -19 17
-93 25 -165 9 -71 30 -200 46 -285 100 -513 220 -814 350 -880 21 -11 39 -18
39 -15 0 3 -16 26 -36 52 -151 197 -280 708 -379 1498 -31 246 -29 239 -60
253 -37 17 -58 15 -51 -3z"/>
<path d="M16737 5686 c-9 -23 -30 -436 -23 -444 4 -3 13 1 22 10 24 24 37 150
31 297 -6 125 -16 173 -30 137z"/>
<path d="M16177 5450 c13 -120 6 -462 -11 -627 -15 -142 -49 -365 -62 -405 -5
-15 1 -18 39 -18 l44 0 12 73 c28 184 35 290 36 567 0 249 -3 307 -18 371 -10
42 -24 85 -33 95 -13 17 -14 11 -7 -56z"/>
<path d="M15886 5424 c-11 -27 -31 -432 -23 -441 4 -4 15 1 25 10 15 15 17 44
20 210 3 185 -5 266 -22 221z"/>
<path d="M16873 5081 c-42 -294 -108 -493 -198 -598 -40 -47 -37 -53 11 -24
121 74 216 283 258 571 l14 95 -31 56 -32 56 -22 -156z"/>
<path d="M14060 5205 c-14 -7 -47 -24 -74 -36 l-49 -22 32 -29 c60 -54 121
-25 121 57 0 25 -1 45 -2 45 -2 0 -14 -7 -28 -15z"/>
<path d="M17543 5183 c-12 -11 -29 -53 -42 -103 -12 -47 -35 -113 -51 -148
-23 -50 -26 -64 -15 -68 57 -22 144 142 145 274 0 66 -6 73 -37 45z"/>
<path d="M15514 5085 c-61 -61 -191 -130 -263 -140 l-53 -7 33 -34 c39 -40 58
-42 136 -12 116 43 172 95 193 180 7 26 10 50 9 55 -2 4 -27 -15 -55 -42z"/>
<path d="M14720 4856 c0 -9 8 -16 19 -16 10 0 40 -3 66 -7 61 -8 54 12 -8 22
-23 3 -50 9 -59 11 -12 4 -18 0 -18 -10z"/>
<path d="M13887 4535 c9 -185 -38 -323 -154 -446 -104 -110 -244 -187 -418
-230 -157 -39 -434 -35 -574 7 -25 7 -47 11 -49 9 -12 -12 183 -79 279 -96
106 -19 306 -17 409 5 219 45 410 172 494 326 56 103 71 257 40 406 -25 122
-32 127 -27 19z"/>
<path d="M18352 3942 c14 -27 18 -49 14 -79 -5 -38 -3 -43 15 -43 23 0 69 42
69 64 0 23 -41 64 -81 80 l-36 15 19 -37z"/>
<path d="M16005 3953 c-16 -2 -46 -6 -65 -9 l-35 -6 28 -24 c36 -31 58 -30 96
2 32 27 40 45 19 43 -7 -1 -26 -4 -43 -6z"/>
</g>
</svg>
